
<svg version="1.0" xmlns="http://www.w3.org/2000/svg"
 width="400.000000pt" height="400.000000pt" viewBox="0 0 400.000000 400.000000"
 preserveAspectRatio="xMidYMid meet">

<g transform="translate(0.000000,400.000000) scale(0.100000,-0.100000)"
fill="#000000" stroke="none">
<path d="M1830 3914 c-14 -2 -65 -9 -115 -15 -284 -34 -616 -173 -870 -362
-101 -76 -303 -278 -381 -382 -188 -250 -321 -566 -366 -870 -17 -118 -17
-444 1 -560 47 -308 181 -623 374 -880 76 -101 259 -283 363 -361 253 -192
556 -322 864 -370 131 -21 430 -23 555 -5 629 91 1168 480 1454 1049 85 169
154 390 182 587 18 125 16 424 -5 555 -48 308 -178 611 -370 864 -78 104 -260
287 -361 363 -250 188 -542 315 -850 369 -78 14 -424 27 -475 18z m398 -300
c371 -59 672 -213 928 -476 181 -185 296 -372 374 -607 132 -396 116 -792 -45
-1169 -158 -368 -463 -677 -828 -839 -491 -218 -1068 -180 -1517 100 -209 131
-404 326 -528 529 -303 496 -324 1094 -56 1608 81 154 170 273 307 407 310
303 689 459 1120 462 90 1 185 -5 245 -15z"/>
<path d="M1066 2824 c-299 -66 -535 -295 -618 -599 -33 -122 -31 -306 5 -439
78 -284 293 -505 572 -587 110 -32 277 -37 389 -10 179 43 318 121 430 242
l65 71 3 -90 3 -89 518 340 518 340 -73 47 c-40 26 -272 178 -516 338 -244
161 -446 292 -448 292 -2 0 -4 -259 -4 -576 0 -545 -1 -576 -17 -569 -64 27
-105 37 -158 38 -53 1 -73 -5 -180 -55 -137 -65 -217 -88 -303 -88 -94 0 -160
17 -257 64 -196 97 -315 285 -318 501 -1 112 14 178 66 280 95 186 290 304
503 305 74 0 147 -18 316 -79 100 -35 135 -38 227 -15 68 16 94 35 84 60 -7
18 -159 139 -241 192 -34 22 -97 53 -140 67 -66 23 -97 28 -217 31 -101 3
-159 -1 -209 -12z m1342 -553 c221 -145 402 -266 402 -270 -1 -6 -801 -532
-821 -539 -5 -2 -9 234 -9 543 0 455 2 545 13 538 8 -4 195 -127 415 -272z"/>
<path d="M2970 2005 l0 -695 240 0 240 0 0 695 0 694 -240 1 -240 0 0 -695z
m410 -5 l0 -620 -165 0 -165 0 0 620 0 620 165 0 165 0 0 -620z"/>
<path d="M1218 1034 c-35 -19 -48 -43 -48 -92 0 -33 6 -45 31 -66 17 -14 38
-26 47 -26 37 0 62 13 62 31 0 13 -9 19 -37 21 -31 2 -39 7 -41 27 -2 12 -1
34 3 48 5 23 10 25 46 20 36 -5 39 -3 39 18 0 35 -54 46 -102 19z"/>
<path d="M1398 1043 c-32 -3 -48 -9 -53 -21 -3 -9 -1 -18 4 -20 6 -2 9 -8 6
-13 -4 -5 -7 -36 -9 -69 -3 -65 2 -70 58 -70 30 0 56 15 56 32 0 4 -13 8 -30
8 -23 0 -30 4 -30 20 0 11 7 20 15 20 8 0 19 9 25 20 9 17 8 20 -10 20 -11 0
-20 7 -20 15 0 8 9 15 19 15 20 0 51 25 51 41 0 5 -8 8 -17 7 -10 -1 -39 -3
-65 -5z"/>
<path d="M1523 1043 c-25 -5 -39 -33 -22 -44 8 -5 10 -28 5 -79 l-7 -72 23 7
c28 9 38 22 38 55 1 22 3 20 22 -15 11 -22 22 -41 23 -43 1 -1 14 2 28 9 l25
11 -24 36 -24 35 20 22 c51 55 -7 97 -107 78z m77 -47 c0 -16 -28 -42 -36 -33
-3 3 -3 15 1 26 7 23 35 29 35 7z"/>
<path d="M1704 1043 c-22 -4 -41 -43 -22 -43 7 0 9 -26 5 -75 -3 -41 -4 -75
-2 -75 22 0 54 23 57 41 2 16 13 25 35 31 58 15 80 71 43 108 -19 19 -61 24
-116 13z m76 -52 c0 -18 -26 -48 -34 -40 -2 2 -2 16 1 32 6 30 33 37 33 8z"/>
<path d="M1904 1042 c-6 -4 -19 -29 -29 -55 -10 -27 -24 -51 -31 -54 -15 -6
-15 -65 0 -75 18 -12 24 -9 31 12 9 27 61 28 68 1 3 -14 11 -18 26 -14 30 8
32 15 17 59 -8 22 -22 60 -31 87 -16 45 -28 55 -51 39z m12 -120 c-12 -11 -18
7 -10 30 l8 23 4 -23 c2 -13 1 -26 -2 -30z"/>
<path d="M2054 1042 c-14 -9 -48 -168 -39 -182 14 -22 33 -8 42 33 l10 42 13
-32 c6 -18 15 -33 19 -33 4 0 15 16 24 35 22 46 35 44 39 -7 3 -43 13 -54 38
-38 12 7 12 22 3 95 -5 47 -12 88 -15 90 -12 13 -47 -11 -63 -43 l-18 -37 -12
39 c-12 41 -22 51 -41 38z"/>
<path d="M2298 1043 c-46 -4 -72 -28 -47 -44 6 -4 8 -12 4 -18 -14 -23 -12
-120 3 -126 25 -9 78 -5 90 7 19 19 14 28 -18 28 -23 0 -30 4 -30 20 0 11 7
20 15 20 8 0 19 9 25 20 9 17 8 20 -10 20 -11 0 -20 7 -20 15 0 8 9 15 19 15
20 0 51 25 51 41 0 5 -8 8 -17 7 -10 -1 -39 -3 -65 -5z"/>
<path d="M2410 1031 c-20 -17 -22 -22 -11 -30 10 -7 13 -23 8 -63 -3 -29 -8
-61 -12 -70 -8 -21 19 -24 77 -7 124 34 129 172 8 186 -36 4 -50 1 -70 -16z
m89 -35 c19 -23 9 -77 -16 -94 -23 -14 -23 -14 -23 31 0 71 14 93 39 63z"/>
<path d="M2619 1043 c-20 -5 -29 -45 -29 -130 0 -62 1 -64 23 -57 12 3 23 7
24 9 8 6 15 185 7 184 -5 -1 -16 -3 -25 -6z"/>
<path d="M2733 1038 c-6 -7 -18 -34 -28 -60 -10 -27 -23 -48 -30 -48 -18 0
-11 -61 8 -72 12 -6 19 -3 27 12 14 27 57 27 65 0 5 -16 12 -19 28 -14 12 3
24 8 27 11 2 2 -9 43 -25 91 -30 86 -50 108 -72 80z m27 -105 c0 -7 -7 -13
-16 -13 -11 0 -14 5 -10 16 3 9 6 21 6 27 0 16 20 -14 20 -30z"/>
</g>
</svg>
